<svg width="149" height="101" fill="none" xmlns="http://www.w3.org/2000/svg">
  <path opacity=".5" d="M28 54h93v11.5l-4.5 3.5h-84L28 65.5V54Z" fill="#2A94E2"/>
  <path d="M141.4 43.6h-14.2l-1.6.2-1.2-29.7A13.8 13.8 0 0 0 111 1H38c-7 0-13 6-13.4 13.1l-1.3 29.7a8 8 0 0 0-1.5-.2H7.5C3.7 43.6 1 46.2 1 50V83.3c0 3.6 2.7 7.6 6.5 7.6h7.1V99.2c0 .5.4.8.8.8h4.5c.5 0 .8-.3.8-.8V91h107.6V100h5.3c.4 0 .8-.3.8-.8V91h7c3.9 0 6.6-4 6.6-7.6V49.9c0-3.7-2.7-6.3-6.6-6.3Zm-66.1-41H111c6.1 0 11.6 5.3 11.8 11.6l1.3 30.1a6 6 0 0 0-3.4 5.6v3.7c-.6-.5-1.4-.8-2.2-.8H75.3V2.5Zm0 51.7h43.2c1.2 0 2.2 1 2.2 2.3v5.7a6 6 0 0 1-5.6 5.7H75.3V54.3ZM73.7 68H33.8c-2.8 0-5.5-2.7-5.5-5.7v-5.7c0-1.3 1-2.3 2.2-2.3h43.2V68ZM26.1 14.2C26.4 7.9 31.8 2.5 38 2.5h35.7v50.3H30.5c-.8 0-1.6.3-2.2.8v-3.7a6 6 0 0 0-3.5-5.6l1.3-30.1Zm-7 84.3h-3v-7.6h3v7.6Zm113.7 0h-3v-7.6h3v7.6Zm13.7-15.2c0 2.8-2.2 6-5 6H7.5c-3 0-5-3.2-5-6V49.9c0-2.8 2-4.7 5-4.7h14.2c3 0 5 1.9 5 4.7v12.4c0 3.8 3.3 7.2 7 7.2h81.3c3.7 0 7.1-3.4 7.1-7.2V50c0-2.8 2-4.7 5-4.7h14.2c3 0 5 1.9 5 4.7v33.4Z" fill="#000" stroke="#000" stroke-width=".5"/>
  <path d="M50.5 29c1.4 0 2.5-.9 2.5-2s-1.1-2-2.5-2-2.5.9-2.5 2 1.1 2 2.5 2ZM99 29a2 2 0 1 0 0-4 2 2 0 0 0 0 4Z" fill="#000" stroke="#000" stroke-width=".5"/>
</svg>