<svg fill="none" xmlns="http://www.w3.org/2000/svg" viewBox="0 0 111 137">
  <path d="m23 74.3-6.6-22.5-1.5.4 6.6 22.6 1.5-.5Zm73.2-22.1-1.5-.4-6.5 22.5 1.5.5 6.5-22.6Z" fill="#000" stroke="#000" stroke-width=".5"/>
  <path d="M106 104H5a.8.8 0 0 1-.7-.8v-20L1 62c0-.3 0-.6.3-.8l14-10C16.6 43 26.6 3.3 27 1.6c0-.4.5-.7 1-.6 0 0 9.3 2.4 25.5 2.4 9.6 0 19.6-.8 29.8-2.4.5 0 .8.2 1 .6C84.6 3.3 94.7 43 96 51.3l13.5 9c.3.1.4.4.4.7l-3.2 21.1v21.1l-.3.6-.5.2ZM5.9 102.4h99.3V82l3.2-20.7L95 52.4A1174 1174 0 0 0 83 2.6C72.9 4.3 63 5 53.6 5 39.8 5 31 3.2 28.4 2.7a1179.1 1179.1 0 0 0-12 49.7l-13.8 10L6 83v19.4Z" fill="#000" stroke="#000" stroke-width=".5"/>
  <path d="M40.5 29a2.5 2.5 0 1 1 0-5 2.5 2.5 0 0 1 0 5Zm0-3.5a1 1 0 1 0 0 2 1 1 0 0 0 0-2Zm30 3.5a2.5 2.5 0 1 1 0-5 2.5 2.5 0 0 1 0 5Zm0-3.5a1 1 0 1 0 0 2 1 1 0 0 0 0-2ZM40.5 47a2.5 2.5 0 1 1 0-5 2.5 2.5 0 0 1 0 5Zm0-3.5a1 1 0 1 0 0 2 1 1 0 0 0 0-2Zm30 3.5a2.5 2.5 0 1 1 0-5 2.5 2.5 0 0 1 0 5Zm0-3.5a1 1 0 1 0 0 2 1 1 0 0 0 0-2ZM14.4 136c-1.4 0-2.1-2.2-2.4-3.2v-.3l3.7-29.8c0-.4.3-.7.7-.7h5.8c.3 0 .5.1.6.3.2.2.2.4.2.6 0 .3-4 20.8-5.9 28.6-.8 3.2-1.6 4.5-2.7 4.5Zm-.9-3.4c.3.7.6 1.5.9 1.8.1-.2.6-.8 1.2-3.3a494 494 0 0 0 5.7-27.5h-4.2l-3.6 29Zm83.1 3.4c-1.1 0-2-1.3-2.7-4.5-2-7.8-5.8-28.3-5.9-28.6 0-.2 0-.4.2-.6.1-.2.3-.3.6-.3h5.8c.4 0 .7.3.7.7l3.7 29.8v.3c-.3 1-1 3.2-2.4 3.2Zm-6.9-32.4c.8 4.1 4 20.7 5.7 27.5.6 2.4 1 3.1 1.2 3.3.3-.3.6-1 .8-1.8l-3.5-29h-4.2Z" fill="#000" stroke="#000" stroke-width=".5"/>
  <g opacity=".5">
    <path d="M92 88H18c-3.9 0-7-3.4-7-7.5s3.1-7.5 7-7.5h74c3.8 0 7 3.4 7 7.5S95.9 88 92 88Z" fill="#2A94E2"/>
    <path d="M18 74.5h74c3 0 5.5 2.7 5.5 6s-2.5 6-5.5 6H18M92 88H18c-3.9 0-7-3.4-7-7.5s3.1-7.5 7-7.5h74c3.8 0 7 3.4 7 7.5S95.9 88 92 88Z" stroke="#000" stroke-width=".5"/>
  </g>
  <path d="M92 88H18c-3.9 0-7-3.4-7-7.5s3.1-7.5 7-7.5h74c3.8 0 7 3.4 7 7.5S95.9 88 92 88ZM18 74.5c-3 0-5.5 2.7-5.5 6s2.5 6 5.5 6h74c3 0 5.5-2.7 5.5-6s-2.5-6-5.5-6H18Z" fill="#000" stroke="#000" stroke-width=".5"/>
  <path d="M106.2 88H4.8c-.5 0-.8-.2-.8-.5s.3-.5.8-.5h101.4c.5 0 .8.2.8.5s-.3.5-.8.5Z" fill="#000" stroke="#000" stroke-width=".5"/>
  <path d="M105.8 104a.8.8 0 0 1-.8-.8V82.5l3.4-20.9c0-.4.5-.7 1-.6.4 0 .7.5.6.9l-3.4 20.7v20.6c0 .5-.3.8-.8.8Z" fill="#000" stroke="#000" stroke-width=".5"/>
</svg>