<svg width="135" height="138" fill="none" xmlns="http://www.w3.org/2000/svg">
  <path opacity=".5" d="M14 50h18v19H14V50ZM49 50h19v19H49V50ZM105 75h17v17h-17V75Z" fill="#2A94E2"/>
  <path d="M81.8 2v135H52.7v-17.8c0-.8-.8-1.6-1.6-1.6H31.7c-1 0-1.6 1-1.6 1.6V137H1V39.3L81.8 2ZM92 30.2h42V137H92V30.2Zm13 13h16v16.1h-16V43.2Zm-91 6.4h19.3V69H13.9V49.6Zm35.5 0h19.3V69H49.5V49.6Zm55.4 26h16.2v16.1h-16.2V75.5Zm-91 9.6h19.4v19.4H13.9V85.2Zm35.6 0h19.3v19.4H49.5V85.2Zm55.4 22.7h16.2V124h-16.2v-16.2Z" stroke="#000" stroke-width="1.8"/>
</svg>