<svg fill="none" xmlns="http://www.w3.org/2000/svg" viewBox="0 0 146 137">
  <path opacity=".5" d="M6 18.6 114.1 1l2.9 2.3-.5 16.7H18L6 18.6Z" fill="#2A94E2"/>
  <path d="M133.3 103.2v28.4c0 2.4-2 4.4-4.5 4.4H5.4C3 136 1 134 1 131.6V23.9c0-2.4 2-4.7 4.4-5.1L112.7 1l.8-.1c2 .1 3.5 1.7 3.5 3.8v15.4m16.3 83h7.3c2.4 0 4.4-2 4.4-4.4V57.5c0-2.5-2-4.5-4.4-4.5h-7.3m0 50.2H79c-2.4 0-4.4-2-4.4-4.4V57.5c0-2.5 2-4.5 4.4-4.5h54.3m0 0V24.7c0-2.5-2-4.5-4.5-4.5H117m0 0H3m96.5 50.5a7.5 7.5 0 1 0 0 15c4 0 7.6-3.4 7.6-7.6 0-4-3.5-7.4-7.6-7.4Z" stroke="#000" stroke-width="1.8"/>
</svg>