<svg width="147" height="135" fill="none" xmlns="http://www.w3.org/2000/svg">
  <path opacity=".5" d="M142 60.3 125 53v15.1l17 4.9V60.3Z" fill="#2A94E2"/>
  <path d="M142 60.3 125 53v15.1l17 4.9V60.3ZM140.5 71l-14-4V55.4l14 6v9.5Z" fill="#000"/>
  <path opacity=".5" d="m142 76-17-5v15.9l17 3.1V76Z" fill="#2A94E2"/>
  <path d="m142 76-17-5v15.9l17 3.1V76Zm-1.5 12-14-2.6V73.3l14 4v10.6Z" fill="#000"/>
  <path opacity=".5" d="M88 40.3 81 38v19.8l7 2.2V40.3Z" fill="#2A94E2"/>
  <path d="M88 40.3 81 38v19.8l7 2.2V40.3Zm-1.7 17.5-3.6-1.2V40.2l3.6 1.2v16.4Z" fill="#000"/>
  <path opacity=".5" d="M88 106V88.8l-7-.9v18h7Z" fill="#2A94E2"/>
  <path d="M88 106V88.8l-7-.9v18h7Zm-5.3-16.1 3.6.4v14h-3.6V90Z" fill="#000"/>
  <path opacity=".5" d="M97 68.5 89 67v17.3l8 .7V68.5Z" fill="#2A94E2"/>
  <path d="M97 68.5 89 67v17.3l8 .7V68.5Zm-1.9 14.8L91 83V68.9l4.2.8v13.6ZM116 49.4l-6-2.4v19.2l6 1.8V49.4Zm-1.8 16.1-2.4-.7v-15l2.4.8v14.9ZM104 84.4l6 .6V69.4l-6-1.4v16.4Zm1.7-14.4 2.6.6v12.6l-2.6-.3V70Z" fill="#000"/>
  <path opacity=".5" d="M14 58.8V71l44-10.2V46L14 58.8Z" fill="#2A94E2"/>
  <path d="M14 58.8V71l44-10.2V46L14 58.8Zm42.4.8L15.6 69v-9l40.8-12v11.6Z" fill="#000"/>
  <path opacity=".5" d="m14 90 44-5.2V68l-44 8.5V90Z" fill="#2A94E2"/>
  <path d="m14 90 44-5.2V68l-44 8.5V90Zm1.6-12.2 40.8-7.9v13.5l-40.8 4.8V77.8Z" fill="#000"/>
  <path d="M121.8 44V33.5L57 0 18.7 18.2V39L0 46.9v13.7l6.5 1.2v53.5h7.2v10.1L69 135h.1l24.2-3.5 3.1-.5 28.9-4.2.6-.1V112l21.1-.6v-56l-25.2-11.6Zm-64-41.8 62.4 32.4v8.6L69.2 20l-11.4 4.7V2.2ZM15.3 113.7H8V60.4l-6.5-1.1V47.9l18.7-7.8v-21l35.9-17v25L68.3 22v111.2l-53-9.1v-10.4Zm76 16.4v-15.8h3.5v15.3l-1.6.3-2 .2Zm54-20.1-21 .6v14.7l-27.9 4v-16.6h-6.8v17.7L70 133.2V22l75.4 34.5V110Z" fill="#000"/>
</svg>
